# xmcd
#
# Track frame offsets:
#	150
#	19373
#	30380
#	44850
#	53650
#	66800
#	81308
#	90318
#	102115
#	114570
#	127923
#	137220
#	149160
#	161420
#	170118
#	185710
#	201250
#	211765
#	228758
#	241185
#	251473
#	266215
#	276533
#	306303
#
# Disc length: 4268 seconds
#
# Revision: 0
# Processed by: cddbd v1.4PL0 Copyright (c) Steve Scherf et al.
# Submitted via: dBpowerAMP V4.0
#
DISCID=6610aa18
DTITLE=Trini Lopêz - La Bamba
DYEAR=1900
DGENRE=
TTITLE0=La bamba
TTITLE1=Cuendo calienta el sol
TTITLE2=Guantanamera
TTITLE3=Amor, amor, amor
TTITLE4=El condor pasa
TTITLE5=Kansas city
TTITLE6=Quinzas, quinzas, quinzas
TTITLE7=Perfidia
TTITLE8=Michael
TTITLE9=If I had a hammer
TTITLE10=Chelito Lindo
TTITLE11=Blowin in the wind
TTITLE12=Besame mucho
TTITLE13=Adalita
TTITLE14=Granada
TTITLE15=America
TTITLE16=Shame and scandall
TTITLE17=This land is your land
TTITLE18=Lemon tree
TTITLE19=Bye, bye, blondie
TTITLE20=What did I say
TTITLE21=Bye bye blackbird
TTITLE22=Meddley
TTITLE23=Unchain my heart
EXTD=
EXTT0=
EXTT1=
EXTT2=
EXTT3=
EXTT4=
EXTT5=
EXTT6=
EXTT7=
EXTT8=
EXTT9=
EXTT10=
EXTT11=
EXTT12=
EXTT13=
EXTT14=
EXTT15=
EXTT16=
EXTT17=
EXTT18=
EXTT19=
EXTT20=
EXTT21=
EXTT22=
EXTT23=
PLAYORDER=
